<?xml version="1.0" encoding="UTF-8"?>
<svg width="512pt" height="512pt" version="1.1" viewBox="0 0 512 512" xmlns="http://www.w3.org/2000/svg">
 <path d="m319.68 93.145c-0.75-0.39844-1.543-0.69922-2.3555-0.92969-19.094-7.1719-39.75-11.121-61.32-11.121-21.559 0-42.207 3.9453-61.297 11.113-0.82422 0.23438-1.6289 0.53906-2.3867 0.94141-65.035 25.523-111.22 88.875-111.22 162.85 0 96.445 78.461 174.91 174.91 174.91s174.91-78.461 174.91-174.91c0-73.98-46.191-137.34-111.23-162.86zm73.086 226.24c-10.344-3.3555-20.695-6.3711-31.062-8.9648 6.6406-36.262 6.6445-72.586 0.007812-108.85 10.363-2.5898 20.715-5.6055 31.055-8.9609 8.9727 19.285 14.02 40.754 14.02 63.387s-5.0469 44.102-14.02 63.387zm-124.7 86.867v-84.656c21.699 0.65234 43.391 3.0781 65.043 7.2461-6.2344 23.082-15.457 46.242-27.602 69.551-11.879 4.1445-24.43 6.8281-37.441 7.8633zm-61.566-7.8633c-12.145-23.309-21.367-46.469-27.602-69.551 21.652-4.168 43.344-6.5938 65.043-7.2461v84.656c-13.012-1.0352-25.559-3.7188-37.438-7.8633zm-101.28-142.39c0-22.633 5.043-44.102 14.02-63.387 10.34 3.3555 20.691 6.3711 31.059 8.9648-6.6367 36.262-6.6328 72.586 0.007813 108.85-10.367 2.5938-20.723 5.6094-31.066 8.9648-8.9766-19.285-14.02-40.754-14.02-63.387zm68.363-49.289c23.418 4.5547 46.883 7.1758 70.352 7.8438v82.887c-23.469 0.66797-46.93 3.2891-70.344 7.8438-6.0273-32.895-6.0273-65.684-0.007813-98.574zm70.352-100.97v84.656c-21.703-0.65234-43.395-3.0781-65.051-7.2461 6.2305-23.078 15.449-46.238 27.586-69.543 11.887-4.1445 24.441-6.832 37.461-7.8711zm61.59 7.8711c12.141 23.305 21.359 46.461 27.59 69.539-21.656 4.168-43.352 6.5938-65.055 7.2461l0.003906-84.656c13.02 1.0352 25.578 3.7227 37.465 7.8711zm-37.465 183.83v-82.887c23.473-0.66797 46.934-3.2891 70.355-7.8438 6.0234 32.895 6.0195 65.684-0.007812 98.578-23.418-4.5586-46.879-7.1797-70.348-7.8438zm112.53-126.25c-8.0273 2.5078-16.066 4.8008-24.113 6.8242-4.1094-15.648-9.4766-31.281-16.059-46.887 15.777 10.703 29.422 24.32 40.172 40.062zm-209.01-40.066c-6.5859 15.605-11.953 31.242-16.062 46.891-8.0469-2.0234-16.086-4.3164-24.113-6.8242 10.75-15.746 24.395-29.363 40.176-40.066zm-40.176 209.68c8.0312-2.5117 16.074-4.8047 24.125-6.8281 4.1094 15.656 9.4844 31.293 16.074 46.906-15.789-10.703-29.441-24.328-40.199-40.078zm208.99 40.078c6.5898-15.613 11.965-31.25 16.074-46.902 8.0469 2.0234 16.086 4.3164 24.121 6.8281-10.754 15.75-24.406 29.371-40.195 40.078z"/>
</svg>
