<?xml version="1.0" encoding="UTF-8"?>
<svg width="512pt" height="512pt" version="1.1" viewBox="0 0 512 512" xmlns="http://www.w3.org/2000/svg">
 <g>
  <path d="m338.89 92.16h-165.78c-21.465 0.023438-42.039 8.5586-57.219 23.734-15.176 15.18-23.711 35.754-23.734 57.219v165.77c0.023438 21.465 8.5586 42.039 23.734 57.219 15.18 15.176 35.754 23.711 57.219 23.734h165.78c21.461-0.023438 42.039-8.5586 57.215-23.734 15.172-15.18 23.707-35.754 23.73-57.219v-165.77c-0.023438-21.465-8.5586-42.039-23.73-57.219-15.176-15.176-35.754-23.711-57.215-23.734zm49.844 246.73h-0.003906c-0.011719 13.215-5.2695 25.887-14.613 35.234-9.3438 9.3438-22.012 14.602-35.227 14.621h-165.78c-13.219-0.015626-25.887-5.2734-35.234-14.621-9.3438-9.3477-14.602-22.016-14.613-35.234v-165.77c0.011719-13.219 5.2695-25.887 14.613-35.234 9.3477-9.3477 22.016-14.605 35.234-14.621h165.78c13.215 0.019532 25.883 5.2773 35.227 14.621 9.3438 9.3477 14.602 22.02 14.613 35.234z"/>
  <path d="m256 177.97c-20.695 0-40.539 8.2227-55.172 22.855s-22.852 34.48-22.852 55.176c0 20.695 8.2227 40.539 22.855 55.172 14.633 14.633 34.48 22.852 55.176 22.852 20.691 0 40.539-8.2188 55.172-22.852 14.633-14.637 22.855-34.48 22.855-55.176-0.023437-20.688-8.2539-40.523-22.883-55.152s-34.465-22.855-55.152-22.875zm0 124.96c-12.445 0-24.383-4.9453-33.184-13.75-8.7969-8.8008-13.742-20.738-13.742-33.184 0-12.445 4.9453-24.383 13.75-33.184 8.8008-8.8008 20.734-13.742 33.184-13.742 12.445 0 24.383 4.9453 33.184 13.746 8.8008 8.8008 13.742 20.738 13.742 33.184-0.011719 12.445-4.9609 24.375-13.758 33.172-8.8008 8.8008-20.73 13.746-33.176 13.758z"/>
  <path d="m337.23 153.95c-5.5273-0.003907-10.824 2.1914-14.73 6.0977-3.9062 3.9023-6.1055 9.2031-6.1055 14.727 0 5.5234 2.1953 10.82 6.0977 14.73 3.9062 3.9062 9.207 6.1016 14.73 6.1016 5.5234 0 10.82-2.1953 14.727-6.1016s6.1016-9.2031 6.1016-14.727c0-5.5234-2.1914-10.82-6.0977-14.727s-9.2031-6.1016-14.723-6.1016z"/>
 </g>
</svg>
